<?xml version="1.0" encoding="UTF-8" standalone="no"?>
<!-- Created with Inkscape (http://www.inkscape.org/) -->

<svg
   xmlns:dc="http://purl.org/dc/elements/1.1/"
   xmlns:cc="http://creativecommons.org/ns#"
   xmlns:rdf="http://www.w3.org/1999/02/22-rdf-syntax-ns#"
   xmlns:svg="http://www.w3.org/2000/svg"
   xmlns="http://www.w3.org/2000/svg"
   xmlns:sodipodi="http://sodipodi.sourceforge.net/DTD/sodipodi-0.dtd"
   xmlns:inkscape="http://www.inkscape.org/namespaces/inkscape"
   width="20"
   height="20"
   viewBox="0 0 20 20"
   id="svg2"
   version="1.1"
   inkscape:version="0.91 r13725"
   inkscape:export-filename="C:\Users\Thorn\Desktop\icon.png"
   inkscape:export-xdpi="90"
   inkscape:export-ydpi="90"
   sodipodi:docname="icon.svg">
  <defs
     id="defs4" />
  <sodipodi:namedview
     id="base"
     pagecolor="#ffffff"
     bordercolor="#666666"
     borderopacity="1.0"
     inkscape:pageopacity="0.0"
     inkscape:pageshadow="2"
     inkscape:zoom="18.114541"
     inkscape:cx="7.0055866"
     inkscape:cy="11.577654"
     inkscape:document-units="px"
     inkscape:current-layer="layer1"
     showgrid="false"
     fit-margin-top="0"
     fit-margin-left="0"
     fit-margin-right="0"
     fit-margin-bottom="0"
     units="px"
     inkscape:window-width="1858"
     inkscape:window-height="1061"
     inkscape:window-x="1676"
     inkscape:window-y="-4"
     inkscape:window-maximized="1" />
  <metadata
     id="metadata7">
    <rdf:RDF>
      <cc:Work
         rdf:about="">
        <dc:format>image/svg+xml</dc:format>
        <dc:type
           rdf:resource="http://purl.org/dc/dcmitype/StillImage" />
        <dc:title />
      </cc:Work>
    </rdf:RDF>
  </metadata>
  <g
     inkscape:label="Ebene 1"
     inkscape:groupmode="layer"
     id="layer1"
     transform="translate(-155.3366,-824.02714)">
    <g
       id="g4911"
       transform="matrix(0.8437498,0,0,0.8437498,25.833885,130.31692)"
       style="fill:#f0f5ff;fill-opacity:1">
      <g
         id="text4136-0"
         style="font-style:normal;font-weight:normal;font-size:19.43318558px;line-height:125%;font-family:sans-serif;text-align:center;letter-spacing:0px;word-spacing:0px;text-anchor:middle;fill:#f0f5ff;fill-opacity:1;stroke:none;stroke-width:1px;stroke-linecap:butt;stroke-linejoin:miter;stroke-opacity:1"
         transform="matrix(0.64000046,0,0,0.64000046,55.681088,304.4894)">
        <path
           inkscape:connector-curvature="0"
           id="path4212-0"
           style="font-style:normal;font-variant:normal;font-weight:bold;font-stretch:normal;font-family:'Open Sans';-inkscape-font-specification:'Open Sans Bold';text-align:center;text-anchor:middle;fill:#f0f5ff;fill-opacity:1;stroke:none"
           d="m 163.77873,842.83734 -3.34008,-10.88372 -0.0854,0 q 0.18029,3.3211 0.18029,4.4313 l 0,6.45242 -2.62841,0 0,-13.87271 4.00429,0 3.28315,10.60854 0.0569,0 3.48241,-10.60854 4.0043,0 0,13.87271 -2.74228,0 0,-6.56629 q 0,-0.46495 0.009,-1.07224 0.019,-0.60729 0.13285,-3.22621 l -0.0854,0 -3.5773,10.86474 -2.69484,0 z" />
        <path
           inkscape:connector-curvature="0"
           id="path4214-1"
           style="font-style:normal;font-variant:normal;font-weight:bold;font-stretch:normal;font-family:'Open Sans';-inkscape-font-specification:'Open Sans Bold';text-align:center;text-anchor:middle;fill:#f0f5ff;fill-opacity:1;stroke:none"
           d="m 182.74696,842.83734 -0.55984,-1.44231 -0.0759,0 q -0.73065,0.92042 -1.50873,1.281 -0.7686,0.35109 -2.01164,0.35109 -1.52771,0 -2.41017,-0.87298 -0.87298,-0.87297 -0.87298,-2.48608 0,-1.68902 1.17662,-2.48608 1.18611,-0.80655 3.56781,-0.89195 l 1.84084,-0.0569 0,-0.46495 q 0,-1.61311 -1.65106,-1.61311 -1.27151,0 -2.98899,0.7686 l -0.95837,-1.9547 q 1.83135,-0.95838 4.06123,-0.95838 2.13499,0 3.27365,0.92991 1.13867,0.92991 1.13867,2.82768 l 0,7.0692 -2.02113,0 z m -0.854,-4.91523 -1.11968,0.038 q -1.26202,0.038 -1.8788,0.45546 -0.61677,0.41751 -0.61677,1.27151 0,1.22406 1.40435,1.22406 1.00582,0 1.60362,-0.57882 0.60728,-0.57882 0.60728,-1.53719 l 0,-0.87298 z" />
      </g>
      <g
         id="text4136-5-1"
         style="font-style:normal;font-weight:normal;font-size:19.16166306px;line-height:125%;font-family:sans-serif;text-align:center;letter-spacing:0px;word-spacing:0px;text-anchor:middle;fill:#f0f5ff;fill-opacity:1;stroke:none;stroke-width:1px;stroke-linecap:butt;stroke-linejoin:miter;stroke-opacity:1"
         transform="matrix(0.64000046,0,0,0.64000046,57.208388,303.68938)">
        <path
           inkscape:connector-curvature="0"
           id="path4207-1"
           style="font-style:normal;font-variant:normal;font-weight:bold;font-stretch:normal;font-family:'Open Sans';-inkscape-font-specification:'Open Sans Bold';text-align:center;text-anchor:middle;fill:#f0f5ff;fill-opacity:1;stroke:none"
           d="m 164.32353,815.44108 q -1.63735,0 -2.53555,1.23503 -0.89821,1.22567 -0.89821,3.4244 0,4.57522 3.43376,4.57522 1.44086,0 3.48989,-0.72043 l 0,2.43263 q -1.68413,0.70172 -3.76122,0.70172 -2.98466,0 -4.56587,-1.80576 -1.58121,-1.81512 -1.58121,-5.20209 0,-2.13323 0.77657,-3.73316 0.77657,-1.60928 2.22679,-2.4607 1.45958,-0.86078 3.41505,-0.86078 1.99289,0 4.00449,0.9637 l -0.93563,2.35778 q -0.76722,-0.36489 -1.54379,-0.63622 -0.77657,-0.27134 -1.52507,-0.27134 z" />
        <path
           inkscape:connector-curvature="0"
           id="path4209-8"
           style="font-style:normal;font-variant:normal;font-weight:bold;font-stretch:normal;font-family:'Open Sans';-inkscape-font-specification:'Open Sans Bold';text-align:center;text-anchor:middle;fill:#f0f5ff;fill-opacity:1;stroke:none"
           d="m 172.76289,821.65365 q 0,1.55315 0.50524,2.34843 0.5146,0.79528 1.66542,0.79528 1.14147,0 1.63735,-0.78592 0.50524,-0.79529 0.50524,-2.35779 0,-1.55314 -0.50524,-2.32971 -0.50524,-0.77657 -1.65606,-0.77657 -1.14147,0 -1.64671,0.77657 -0.50524,0.76721 -0.50524,2.32971 z m 7.23241,0 q 0,2.55427 -1.34731,3.99514 -1.3473,1.44086 -3.75187,1.44086 -1.50636,0 -2.65718,-0.65494 -1.15082,-0.66429 -1.76834,-1.89932 -0.61751,-1.23503 -0.61751,-2.88174 0,-2.56362 1.33795,-3.98577 1.33795,-1.42216 3.76122,-1.42216 1.50636,0 2.65719,0.65494 1.15082,0.65494 1.76833,1.88062 0.61752,1.22567 0.61752,2.87237 z" />
      </g>
    </g>
  </g>
</svg>
